<svg width="28" height="28" viewBox="0 0 28 28" fill="none" xmlns="http://www.w3.org/2000/svg">
<path fill-rule="evenodd" clip-rule="evenodd" d="M9.17008 8.39024C9.25606 7.94059 9.37319 7.49316 9.53274 7.06648C9.8386 6.24856 10.3108 5.4758 11.0462 4.90766C11.7886 4.33418 12.7595 4 13.9999 4C15.2403 4 16.2112 4.33418 16.9536 4.90766C17.689 5.47579 18.1612 6.24856 18.4671 7.06648C18.6267 7.49315 18.7438 7.94059 18.8298 8.39024H21.2129C21.724 8.39024 22.1551 8.75662 22.2185 9.24484L23.992 22.9034C24.0676 23.4857 23.596 24 22.9864 24H5.01359C4.40401 24 3.93237 23.4857 4.00798 22.9034L5.7815 9.24484C5.84489 8.75662 6.27601 8.39024 6.78711 8.39024H9.17008ZM10.2018 8.39024C10.2742 8.04973 10.3671 7.71561 10.4863 7.39693C10.7505 6.69046 11.1333 6.09128 11.6805 5.66856C12.2208 5.25119 12.96 4.97561 13.9999 4.97561C15.0398 4.97561 15.779 5.25119 16.3193 5.66856C16.8665 6.09128 17.2494 6.69047 17.5136 7.39694C17.6327 7.71561 17.7256 8.04973 17.798 8.39024H10.2018ZM9.02776 9.36585C8.93271 10.2675 8.93272 11.1226 8.93273 11.7749L8.93274 11.8049C8.93273 12.0743 9.15959 12.2927 9.43945 12.2927C9.7193 12.2927 9.94617 12.0743 9.94618 11.8049C9.94619 11.105 9.94781 10.2424 10.0466 9.36585H17.9533C18.052 10.2424 18.0537 11.105 18.0537 11.8049C18.0537 12.0743 18.2805 12.2927 18.5604 12.2927C18.8402 12.2927 19.0671 12.0743 19.0671 11.8049V11.7752C19.0671 11.1229 19.0672 10.2677 18.9721 9.36585H21.2129L22.9864 23.0244H5.01359L6.78711 9.36585H9.02776Z" fill="white"/>
</svg>
