<svg width="28" height="28" viewBox="0 0 28 28" fill="none" xmlns="http://www.w3.org/2000/svg">
<path fill-rule="evenodd" clip-rule="evenodd" d="M13.3787 8.00526C13.7936 8.50883 14 8.90908 14 8.90908C14 8.90908 14.2064 8.50883 14.6213 8.00526C15.325 7.15122 16.6286 6 18.5429 6C21.0159 6 22.9742 8.00636 22.9995 10.4004C23.0506 15.37 18.9338 18.904 14.4219 21.874C14.2975 21.9561 14.1505 22 14 22C13.8495 22 13.7026 21.9561 13.5782 21.874C9.06573 18.904 4.94892 15.37 5.00048 10.4004C5.02579 8.00636 6.98412 6 9.45712 6C11.3714 6 12.675 7.15122 13.3787 8.00526ZM13.0284 22.7093C13.3177 22.8999 13.6561 23 14 23C14.3439 23 14.6824 22.8999 14.9717 22.7093C17.2502 21.2095 19.5042 19.5204 21.1853 17.5329C22.8787 15.5309 24.0282 13.1805 23.9995 10.3902C23.9685 7.45668 21.5727 5 18.5429 5C16.678 5 15.3069 5.89638 14.4367 6.73417C14.2761 6.88885 14.1306 7.04325 14 7.19228C13.8694 7.04325 13.7239 6.88885 13.5633 6.73417C12.6931 5.89638 11.322 5 9.45712 5C6.42727 5 4.03155 7.45639 4.00053 10.3899C3.97158 13.1803 5.12092 15.5309 6.81433 17.5329C8.49539 19.5203 10.7497 21.2096 13.0284 22.7093Z" fill="#666666"/>
</svg>
